<svg viewBox="0 0 32 32" xml:space="preserve" xmlns="http://www.w3.org/2000/svg"><g fill="#ffffff" class="fill-515151"><path d="M10.246 4.228a.99.99 0 0 0-.99-.991H3.914a.99.99 0 0 0-.991.991V9.57c0 .546.443.99.991.99h5.342a.99.99 0 0 0 .99-.99V4.228zM19.453 4.228a.99.99 0 0 0-.991-.991h-5.343a.99.99 0 0 0-.99.991V9.57c0 .546.444.99.99.99h5.343a.99.99 0 0 0 .991-.99V4.228zM28.868 4.228a.99.99 0 0 0-.99-.991h-5.342a.99.99 0 0 0-.991.991V9.57c0 .546.443.99.991.99h5.342a.99.99 0 0 0 .99-.99V4.228zM10.246 13.224a.99.99 0 0 0-.99-.99H3.914a.99.99 0 0 0-.991.99v5.342c0 .549.443.99.991.99h5.342c.547 0 .99-.441.99-.99v-5.342zM19.453 13.224a.99.99 0 0 0-.991-.99h-5.343a.99.99 0 0 0-.99.99v5.342c0 .549.444.99.99.99h5.343a.989.989 0 0 0 .991-.99v-5.342zM28.868 13.224a.99.99 0 0 0-.99-.99h-5.342a.99.99 0 0 0-.991.99v5.342c0 .549.443.99.991.99h5.342c.547 0 .99-.441.99-.99v-5.342zM10.246 22.43a.991.991 0 0 0-.99-.99H3.914a.991.991 0 0 0-.991.99v5.344c0 .547.443.99.991.99h5.342a.99.99 0 0 0 .99-.99V22.43zM19.453 22.43a.991.991 0 0 0-.991-.99h-5.343a.992.992 0 0 0-.99.99v5.344c0 .547.444.99.99.99h5.343a.99.99 0 0 0 .991-.99V22.43zM28.868 22.43a.991.991 0 0 0-.99-.99h-5.342a.991.991 0 0 0-.991.99v5.344c0 .547.443.99.991.99h5.342a.99.99 0 0 0 .99-.99V22.43z"></path></g></svg>