<svg height="24" viewBox="0 0 24 24" width="24" xmlns="http://www.w3.org/2000/svg"><path d="m20.947 8.305c-.011-.757-.151-1.508-.419-2.216-.469-1.209-1.424-2.165-2.633-2.633-.699-.263-1.438-.404-2.186-.42-.962-.043-1.267-.055-3.709-.055s-2.755 0-3.71.055c-.747.016-1.486.157-2.185.42-1.209.468-2.165 1.424-2.633 2.633-.263.699-.405 1.438-.419 2.185-.043.963-.056 1.268-.056 3.71s0 2.754.056 3.71c.015.748.156 1.486.419 2.187.469 1.208 1.424 2.164 2.634 2.632.696.272 1.435.426 2.185.45.963.043 1.268.056 3.71.056s2.755 0 3.71-.056c.747-.015 1.486-.156 2.186-.419 1.209-.469 2.164-1.425 2.633-2.633.263-.7.404-1.438.419-2.187.043-.962.056-1.267.056-3.71-.002-2.442-.002-2.752-.058-3.709zm-8.953 8.297c-2.554 0-4.623-2.069-4.623-4.623s2.069-4.623 4.623-4.623c2.552 0 4.623 2.069 4.623 4.623s-2.071 4.623-4.623 4.623zm4.807-8.339c-.597 0-1.078-.482-1.078-1.078s.481-1.078 1.078-1.078c.595 0 1.077.482 1.077 1.078s-.482 1.078-1.077 1.078z"/><circle cx="11.994" cy="11.979" r="3.003"/></svg>